<svg xmlns="http://www.w3.org/2000/svg" xmlns:xlink="http://www.w3.org/1999/xlink" width="128" zoomAndPan="magnify" viewBox="0 0 96 60" height="80" preserveAspectRatio="xMidYMid meet" version="1.0"><defs><clipPath id="927d7253c6"><path d="M 22 16 L 33 16 L 33 57.734375 L 22 57.734375 Z M 22 16 " clip-rule="nonzero"/></clipPath><clipPath id="231027d2fa"><path d="M 31 16 L 38 16 L 38 57.734375 L 31 57.734375 Z M 31 16 " clip-rule="nonzero"/></clipPath><clipPath id="ee7123865f"><path d="M 66 16 L 77 16 L 77 57.734375 L 66 57.734375 Z M 66 16 " clip-rule="nonzero"/></clipPath><clipPath id="7bfb0cccde"><path d="M 61 16 L 68 16 L 68 57.734375 L 61 57.734375 Z M 61 16 " clip-rule="nonzero"/></clipPath><clipPath id="3734d9b3e8"><path d="M 36 2.234375 L 50 2.234375 L 50 57.734375 L 36 57.734375 Z M 36 2.234375 " clip-rule="nonzero"/></clipPath><clipPath id="4f1c6f1447"><path d="M 49 2.234375 L 63 2.234375 L 63 57.734375 L 49 57.734375 Z M 49 2.234375 " clip-rule="nonzero"/></clipPath><clipPath id="4324794bd0"><path d="M 20.113281 56 L 79.363281 56 L 79.363281 57.734375 L 20.113281 57.734375 Z M 20.113281 56 " clip-rule="nonzero"/></clipPath></defs><rect x="-9.6" width="115.2" fill="#ffffff" y="-6" height="72" fill-opacity="1"/><rect x="-9.6" width="115.2" fill="#ffffff" y="-6" height="72" fill-opacity="1"/><g clip-path="url(#927d7253c6)"><path fill="#1e425e" d="M 32.3125 57.707031 L 23.109375 57.707031 C 22.910156 57.707031 22.746094 57.542969 22.746094 57.34375 L 22.746094 23.167969 C 22.746094 23.046875 22.804688 22.9375 22.902344 22.867188 L 32.109375 16.5625 C 32.21875 16.484375 32.363281 16.476562 32.480469 16.539062 C 32.601562 16.601562 32.675781 16.726562 32.675781 16.859375 L 32.675781 57.34375 C 32.675781 57.542969 32.511719 57.707031 32.3125 57.707031 Z M 23.46875 56.980469 L 31.953125 56.980469 L 31.953125 17.546875 L 23.46875 23.359375 Z M 23.46875 56.980469 " fill-opacity="1" fill-rule="nonzero"/></g><path fill="#1e425e" d="M 24.523438 25.488281 C 24.402344 25.488281 24.285156 25.429688 24.21875 25.320312 C 24.113281 25.152344 24.160156 24.925781 24.332031 24.820312 L 30.640625 20.847656 C 30.8125 20.738281 31.035156 20.789062 31.140625 20.960938 C 31.246094 21.128906 31.195312 21.351562 31.027344 21.457031 L 24.714844 25.433594 C 24.65625 25.46875 24.589844 25.488281 24.523438 25.488281 Z M 24.523438 25.488281 " fill-opacity="1" fill-rule="nonzero"/><path fill="#1e425e" d="M 24.550781 28.429688 C 24.425781 28.429688 24.304688 28.363281 24.238281 28.246094 C 24.136719 28.074219 24.199219 27.851562 24.371094 27.753906 L 30.65625 24.15625 C 30.828125 24.054688 31.050781 24.117188 31.148438 24.289062 C 31.246094 24.464844 31.1875 24.683594 31.015625 24.785156 L 24.730469 28.382812 C 24.675781 28.414062 24.613281 28.429688 24.550781 28.429688 Z M 24.550781 28.429688 " fill-opacity="1" fill-rule="nonzero"/><path fill="#1e425e" d="M 24.550781 31.339844 C 24.421875 31.339844 24.292969 31.265625 24.230469 31.140625 C 24.136719 30.964844 24.207031 30.746094 24.386719 30.65625 L 30.660156 27.433594 C 30.835938 27.339844 31.054688 27.410156 31.144531 27.589844 C 31.238281 27.765625 31.167969 27.984375 30.988281 28.078125 L 24.71875 31.296875 C 24.664062 31.324219 24.609375 31.339844 24.550781 31.339844 Z M 24.550781 31.339844 " fill-opacity="1" fill-rule="nonzero"/><path fill="#1e425e" d="M 24.488281 34.292969 C 24.351562 34.292969 24.21875 34.214844 24.160156 34.082031 C 24.074219 33.902344 24.15625 33.6875 24.335938 33.601562 L 30.6875 30.695312 C 30.867188 30.613281 31.082031 30.691406 31.164062 30.871094 C 31.25 31.054688 31.167969 31.269531 30.988281 31.351562 L 24.636719 34.261719 C 24.589844 34.28125 24.539062 34.292969 24.488281 34.292969 Z M 24.488281 34.292969 " fill-opacity="1" fill-rule="nonzero"/><path fill="#1e425e" d="M 24.582031 37.207031 C 24.441406 37.207031 24.304688 37.121094 24.25 36.980469 C 24.171875 36.792969 24.261719 36.582031 24.449219 36.507812 L 30.714844 33.980469 C 30.902344 33.90625 31.109375 33.996094 31.1875 34.179688 C 31.261719 34.367188 31.171875 34.574219 30.984375 34.652344 L 24.71875 37.179688 C 24.675781 37.195312 24.628906 37.207031 24.582031 37.207031 Z M 24.582031 37.207031 " fill-opacity="1" fill-rule="nonzero"/><path fill="#1e425e" d="M 24.589844 40.140625 C 24.441406 40.140625 24.300781 40.046875 24.25 39.898438 C 24.183594 39.710938 24.285156 39.503906 24.472656 39.4375 L 30.699219 37.28125 C 30.890625 37.214844 31.09375 37.316406 31.160156 37.503906 C 31.226562 37.691406 31.125 37.898438 30.9375 37.964844 L 24.710938 40.121094 C 24.671875 40.136719 24.628906 40.140625 24.589844 40.140625 Z M 24.589844 40.140625 " fill-opacity="1" fill-rule="nonzero"/><path fill="#1e425e" d="M 24.574219 43.085938 C 24.417969 43.085938 24.273438 42.984375 24.226562 42.824219 C 24.171875 42.632812 24.28125 42.433594 24.476562 42.375 L 30.734375 40.554688 C 30.925781 40.5 31.128906 40.609375 31.183594 40.800781 C 31.238281 40.996094 31.128906 41.195312 30.9375 41.25 L 24.675781 43.070312 C 24.644531 43.082031 24.609375 43.085938 24.574219 43.085938 Z M 24.574219 43.085938 " fill-opacity="1" fill-rule="nonzero"/><path fill="#1e425e" d="M 24.550781 45.996094 C 24.386719 45.996094 24.238281 45.886719 24.199219 45.71875 C 24.152344 45.523438 24.277344 45.328125 24.46875 45.285156 L 30.765625 43.839844 C 30.957031 43.796875 31.152344 43.917969 31.195312 44.113281 C 31.242188 44.308594 31.121094 44.5 30.925781 44.546875 L 24.632812 45.988281 C 24.605469 45.996094 24.578125 45.996094 24.550781 45.996094 Z M 24.550781 45.996094 " fill-opacity="1" fill-rule="nonzero"/><path fill="#1e425e" d="M 24.582031 48.910156 C 24.410156 48.910156 24.257812 48.785156 24.226562 48.609375 C 24.195312 48.410156 24.328125 48.226562 24.523438 48.191406 L 30.796875 47.132812 C 30.992188 47.097656 31.179688 47.230469 31.210938 47.429688 C 31.246094 47.625 31.113281 47.8125 30.917969 47.847656 L 24.644531 48.90625 C 24.625 48.90625 24.601562 48.910156 24.582031 48.910156 Z M 24.582031 48.910156 " fill-opacity="1" fill-rule="nonzero"/><path fill="#1e425e" d="M 24.558594 51.835938 C 24.378906 51.835938 24.21875 51.699219 24.199219 51.515625 C 24.179688 51.316406 24.320312 51.136719 24.519531 51.117188 L 30.808594 50.421875 C 31.007812 50.398438 31.1875 50.542969 31.210938 50.738281 C 31.230469 50.9375 31.089844 51.117188 30.890625 51.140625 L 24.597656 51.835938 C 24.585938 51.835938 24.570312 51.835938 24.558594 51.835938 Z M 24.558594 51.835938 " fill-opacity="1" fill-rule="nonzero"/><path fill="#1e425e" d="M 24.558594 54.78125 C 24.367188 54.78125 24.207031 54.632812 24.199219 54.441406 C 24.1875 54.242188 24.339844 54.070312 24.539062 54.058594 L 30.832031 53.710938 C 31.03125 53.703125 31.199219 53.855469 31.210938 54.054688 C 31.222656 54.253906 31.070312 54.425781 30.871094 54.433594 L 24.578125 54.78125 C 24.570312 54.78125 24.566406 54.78125 24.558594 54.78125 Z M 24.558594 54.78125 " fill-opacity="1" fill-rule="nonzero"/><g clip-path="url(#231027d2fa)"><path fill="#1e425e" d="M 37.039062 57.707031 L 32.3125 57.707031 C 32.113281 57.707031 31.953125 57.542969 31.953125 57.34375 L 31.953125 16.859375 C 31.953125 16.726562 32.027344 16.601562 32.144531 16.539062 C 32.261719 16.476562 32.40625 16.484375 32.515625 16.558594 L 35.851562 18.816406 C 36.019531 18.925781 36.0625 19.152344 35.949219 19.316406 C 35.839844 19.484375 35.613281 19.527344 35.449219 19.414062 L 32.675781 17.539062 L 32.675781 56.984375 L 37.039062 56.984375 C 37.238281 56.984375 37.402344 57.144531 37.402344 57.34375 C 37.402344 57.542969 37.238281 57.707031 37.039062 57.707031 Z M 37.039062 57.707031 " fill-opacity="1" fill-rule="nonzero"/></g><path fill="#1e425e" d="M 35.644531 22.691406 C 35.578125 22.691406 35.511719 22.675781 35.453125 22.636719 L 33.601562 21.476562 C 33.429688 21.371094 33.378906 21.148438 33.484375 20.976562 C 33.589844 20.808594 33.816406 20.757812 33.984375 20.863281 L 35.835938 22.023438 C 36.003906 22.128906 36.054688 22.355469 35.949219 22.523438 C 35.882812 22.632812 35.765625 22.691406 35.644531 22.691406 Z M 35.644531 22.691406 " fill-opacity="1" fill-rule="nonzero"/><path fill="#1e425e" d="M 35.667969 25.871094 C 35.605469 25.871094 35.542969 25.855469 35.488281 25.824219 L 33.601562 24.753906 C 33.425781 24.652344 33.363281 24.433594 33.464844 24.257812 C 33.5625 24.085938 33.785156 24.023438 33.957031 24.121094 L 35.84375 25.195312 C 36.019531 25.292969 36.078125 25.515625 35.980469 25.6875 C 35.914062 25.804688 35.792969 25.871094 35.667969 25.871094 Z M 35.667969 25.871094 " fill-opacity="1" fill-rule="nonzero"/><path fill="#1e425e" d="M 35.660156 29.046875 C 35.605469 29.046875 35.546875 29.03125 35.496094 29.003906 L 33.597656 28.027344 C 33.417969 27.9375 33.347656 27.71875 33.441406 27.542969 C 33.53125 27.363281 33.75 27.292969 33.929688 27.386719 L 35.828125 28.359375 C 36.003906 28.453125 36.074219 28.671875 35.984375 28.847656 C 35.917969 28.972656 35.792969 29.046875 35.660156 29.046875 Z M 35.660156 29.046875 " fill-opacity="1" fill-rule="nonzero"/><path fill="#1e425e" d="M 35.617188 32.238281 C 35.566406 32.238281 35.515625 32.230469 35.464844 32.207031 L 33.648438 31.363281 C 33.464844 31.277344 33.386719 31.0625 33.472656 30.882812 C 33.554688 30.703125 33.769531 30.621094 33.953125 30.707031 L 35.769531 31.550781 C 35.953125 31.632812 36.03125 31.847656 35.945312 32.03125 C 35.886719 32.160156 35.753906 32.238281 35.617188 32.238281 Z M 35.617188 32.238281 " fill-opacity="1" fill-rule="nonzero"/><path fill="#1e425e" d="M 35.632812 35.421875 C 35.585938 35.421875 35.542969 35.414062 35.496094 35.394531 L 33.636719 34.644531 C 33.449219 34.566406 33.359375 34.359375 33.4375 34.171875 C 33.511719 33.988281 33.722656 33.898438 33.90625 33.972656 L 35.765625 34.722656 C 35.953125 34.800781 36.042969 35.011719 35.96875 35.195312 C 35.910156 35.335938 35.773438 35.421875 35.632812 35.421875 Z M 35.632812 35.421875 " fill-opacity="1" fill-rule="nonzero"/><path fill="#1e425e" d="M 35.644531 38.589844 C 35.605469 38.589844 35.566406 38.582031 35.527344 38.570312 L 33.65625 37.9375 C 33.464844 37.875 33.363281 37.667969 33.429688 37.480469 C 33.492188 37.292969 33.699219 37.191406 33.886719 37.253906 L 35.757812 37.886719 C 35.949219 37.949219 36.050781 38.152344 35.988281 38.34375 C 35.9375 38.492188 35.792969 38.589844 35.644531 38.589844 Z M 35.644531 38.589844 " fill-opacity="1" fill-rule="nonzero"/><path fill="#1e425e" d="M 35.621094 41.800781 C 35.585938 41.800781 35.550781 41.796875 35.515625 41.785156 L 33.675781 41.234375 C 33.484375 41.175781 33.375 40.972656 33.433594 40.78125 C 33.488281 40.589844 33.691406 40.480469 33.882812 40.539062 L 35.722656 41.089844 C 35.914062 41.148438 36.023438 41.351562 35.964844 41.542969 C 35.921875 41.699219 35.777344 41.800781 35.621094 41.800781 Z M 35.621094 41.800781 " fill-opacity="1" fill-rule="nonzero"/><path fill="#1e425e" d="M 35.625 44.957031 C 35.601562 44.957031 35.574219 44.957031 35.546875 44.949219 L 33.722656 44.542969 C 33.53125 44.496094 33.40625 44.304688 33.449219 44.109375 C 33.492188 43.914062 33.6875 43.792969 33.882812 43.835938 L 35.703125 44.242188 C 35.898438 44.285156 36.023438 44.480469 35.980469 44.675781 C 35.941406 44.84375 35.792969 44.957031 35.625 44.957031 Z M 35.625 44.957031 " fill-opacity="1" fill-rule="nonzero"/><path fill="#1e425e" d="M 35.640625 48.15625 C 35.621094 48.15625 35.601562 48.15625 35.578125 48.152344 L 33.707031 47.835938 C 33.511719 47.800781 33.378906 47.613281 33.410156 47.417969 C 33.445312 47.222656 33.632812 47.089844 33.828125 47.121094 L 35.699219 47.441406 C 35.898438 47.472656 36.03125 47.660156 35.996094 47.855469 C 35.964844 48.03125 35.8125 48.15625 35.640625 48.15625 Z M 35.640625 48.15625 " fill-opacity="1" fill-rule="nonzero"/><path fill="#1e425e" d="M 35.632812 51.347656 C 35.621094 51.347656 35.605469 51.34375 35.59375 51.34375 L 33.757812 51.140625 C 33.5625 51.117188 33.417969 50.9375 33.441406 50.742188 C 33.460938 50.542969 33.640625 50.398438 33.839844 50.421875 L 35.671875 50.625 C 35.871094 50.648438 36.011719 50.824219 35.992188 51.023438 C 35.96875 51.207031 35.8125 51.34375 35.632812 51.34375 Z M 35.632812 51.347656 " fill-opacity="1" fill-rule="nonzero"/><path fill="#1e425e" d="M 35.640625 54.535156 C 35.632812 54.535156 35.628906 54.535156 35.621094 54.535156 L 33.773438 54.4375 C 33.574219 54.425781 33.421875 54.257812 33.429688 54.058594 C 33.441406 53.859375 33.613281 53.703125 33.8125 53.714844 L 35.660156 53.8125 C 35.859375 53.820312 36.011719 53.992188 36 54.191406 C 35.992188 54.382812 35.832031 54.535156 35.640625 54.535156 Z M 35.640625 54.535156 " fill-opacity="1" fill-rule="nonzero"/><g clip-path="url(#ee7123865f)"><path fill="#1e425e" d="M 76.054688 57.707031 L 66.847656 57.707031 C 66.648438 57.707031 66.488281 57.542969 66.488281 57.34375 L 66.488281 16.859375 C 66.488281 16.726562 66.5625 16.601562 66.679688 16.539062 C 66.800781 16.476562 66.941406 16.484375 67.054688 16.5625 L 76.257812 22.867188 C 76.355469 22.9375 76.414062 23.046875 76.414062 23.167969 L 76.414062 57.34375 C 76.414062 57.542969 76.253906 57.707031 76.054688 57.707031 Z M 67.210938 56.980469 L 75.691406 56.980469 L 75.691406 23.359375 L 67.210938 17.546875 Z M 67.210938 56.980469 " fill-opacity="1" fill-rule="nonzero"/></g><path fill="#1e425e" d="M 74.636719 25.488281 C 74.574219 25.488281 74.503906 25.472656 74.445312 25.433594 L 68.132812 21.457031 C 67.964844 21.351562 67.914062 21.128906 68.019531 20.960938 C 68.128906 20.792969 68.351562 20.742188 68.519531 20.847656 L 74.832031 24.820312 C 75 24.929688 75.050781 25.152344 74.945312 25.320312 C 74.875 25.429688 74.757812 25.488281 74.636719 25.488281 Z M 74.636719 25.488281 " fill-opacity="1" fill-rule="nonzero"/><path fill="#1e425e" d="M 74.609375 28.429688 C 74.550781 28.429688 74.488281 28.414062 74.429688 28.382812 L 68.148438 24.785156 C 67.972656 24.683594 67.914062 24.464844 68.015625 24.289062 C 68.113281 24.117188 68.335938 24.054688 68.507812 24.15625 L 74.789062 27.753906 C 74.964844 27.851562 75.023438 28.074219 74.925781 28.246094 C 74.859375 28.363281 74.734375 28.429688 74.609375 28.429688 Z M 74.609375 28.429688 " fill-opacity="1" fill-rule="nonzero"/><path fill="#1e425e" d="M 74.609375 31.339844 C 74.554688 31.339844 74.5 31.324219 74.445312 31.296875 L 68.171875 28.078125 C 67.996094 27.984375 67.925781 27.769531 68.015625 27.589844 C 68.109375 27.410156 68.324219 27.339844 68.503906 27.433594 L 74.777344 30.65625 C 74.953125 30.746094 75.023438 30.964844 74.933594 31.140625 C 74.867188 31.265625 74.742188 31.339844 74.609375 31.339844 Z M 74.609375 31.339844 " fill-opacity="1" fill-rule="nonzero"/><path fill="#1e425e" d="M 74.675781 34.292969 C 74.625 34.292969 74.574219 34.28125 74.523438 34.261719 L 68.175781 31.351562 C 67.996094 31.269531 67.914062 31.054688 67.996094 30.871094 C 68.082031 30.691406 68.296875 30.609375 68.476562 30.695312 L 74.824219 33.601562 C 75.007812 33.6875 75.085938 33.902344 75.003906 34.082031 C 74.941406 34.214844 74.8125 34.292969 74.675781 34.292969 Z M 74.675781 34.292969 " fill-opacity="1" fill-rule="nonzero"/><path fill="#1e425e" d="M 74.578125 37.207031 C 74.535156 37.207031 74.488281 37.195312 74.441406 37.179688 L 68.175781 34.652344 C 67.992188 34.574219 67.902344 34.367188 67.976562 34.179688 C 68.050781 33.996094 68.261719 33.90625 68.445312 33.980469 L 74.714844 36.507812 C 74.898438 36.582031 74.988281 36.792969 74.914062 36.980469 C 74.855469 37.121094 74.722656 37.207031 74.578125 37.207031 Z M 74.578125 37.207031 " fill-opacity="1" fill-rule="nonzero"/><path fill="#1e425e" d="M 74.570312 40.140625 C 74.53125 40.140625 74.492188 40.136719 74.453125 40.121094 L 68.226562 37.964844 C 68.035156 37.898438 67.9375 37.691406 68 37.503906 C 68.066406 37.316406 68.273438 37.214844 68.460938 37.28125 L 74.6875 39.4375 C 74.878906 39.503906 74.976562 39.710938 74.914062 39.898438 C 74.859375 40.046875 74.71875 40.140625 74.570312 40.140625 Z M 74.570312 40.140625 " fill-opacity="1" fill-rule="nonzero"/><path fill="#1e425e" d="M 74.585938 43.085938 C 74.554688 43.085938 74.519531 43.082031 74.484375 43.070312 L 68.226562 41.25 C 68.035156 41.195312 67.925781 40.996094 67.980469 40.800781 C 68.035156 40.609375 68.234375 40.5 68.425781 40.554688 L 74.6875 42.375 C 74.878906 42.433594 74.988281 42.632812 74.933594 42.824219 C 74.886719 42.980469 74.742188 43.085938 74.585938 43.085938 Z M 74.585938 43.085938 " fill-opacity="1" fill-rule="nonzero"/><path fill="#1e425e" d="M 74.609375 45.996094 C 74.585938 45.996094 74.558594 45.996094 74.53125 45.988281 L 68.238281 44.546875 C 68.042969 44.5 67.921875 44.308594 67.964844 44.113281 C 68.011719 43.917969 68.203125 43.796875 68.398438 43.839844 L 74.691406 45.285156 C 74.886719 45.328125 75.007812 45.523438 74.964844 45.71875 C 74.925781 45.886719 74.777344 45.996094 74.609375 45.996094 Z M 74.609375 45.996094 " fill-opacity="1" fill-rule="nonzero"/><path fill="#1e425e" d="M 74.578125 48.910156 C 74.558594 48.910156 74.539062 48.90625 74.519531 48.90625 L 68.246094 47.847656 C 68.046875 47.8125 67.917969 47.625 67.949219 47.429688 C 67.984375 47.230469 68.167969 47.097656 68.367188 47.132812 L 74.640625 48.191406 C 74.835938 48.222656 74.96875 48.410156 74.933594 48.609375 C 74.90625 48.785156 74.753906 48.910156 74.578125 48.910156 Z M 74.578125 48.910156 " fill-opacity="1" fill-rule="nonzero"/><path fill="#1e425e" d="M 74.601562 51.835938 C 74.589844 51.835938 74.578125 51.835938 74.5625 51.835938 L 68.273438 51.140625 C 68.074219 51.117188 67.929688 50.9375 67.953125 50.742188 C 67.972656 50.542969 68.152344 50.398438 68.351562 50.421875 L 74.644531 51.117188 C 74.839844 51.140625 74.984375 51.316406 74.960938 51.515625 C 74.941406 51.699219 74.785156 51.839844 74.601562 51.839844 Z M 74.601562 51.835938 " fill-opacity="1" fill-rule="nonzero"/><path fill="#1e425e" d="M 74.601562 54.78125 C 74.597656 54.78125 74.589844 54.78125 74.582031 54.78125 L 68.292969 54.433594 C 68.09375 54.425781 67.9375 54.253906 67.949219 54.054688 C 67.960938 53.855469 68.132812 53.703125 68.332031 53.714844 L 74.621094 54.058594 C 74.820312 54.070312 74.972656 54.242188 74.964844 54.441406 C 74.953125 54.632812 74.792969 54.78125 74.601562 54.78125 Z M 74.601562 54.78125 " fill-opacity="1" fill-rule="nonzero"/><g clip-path="url(#7bfb0cccde)"><path fill="#1e425e" d="M 66.847656 57.707031 L 62.121094 57.707031 C 61.921875 57.707031 61.761719 57.542969 61.761719 57.34375 C 61.761719 57.144531 61.921875 56.980469 62.121094 56.980469 L 66.488281 56.980469 L 66.488281 17.539062 L 63.714844 19.414062 C 63.546875 19.527344 63.324219 19.484375 63.210938 19.316406 C 63.101562 19.152344 63.144531 18.925781 63.308594 18.816406 L 66.644531 16.558594 C 66.757812 16.484375 66.898438 16.476562 67.019531 16.539062 C 67.136719 16.601562 67.210938 16.726562 67.210938 16.859375 L 67.210938 57.34375 C 67.210938 57.542969 67.046875 57.703125 66.847656 57.703125 Z M 66.847656 57.707031 " fill-opacity="1" fill-rule="nonzero"/></g><path fill="#1e425e" d="M 63.519531 22.691406 C 63.398438 22.691406 63.28125 22.632812 63.210938 22.523438 C 63.105469 22.355469 63.15625 22.128906 63.324219 22.023438 L 65.179688 20.863281 C 65.347656 20.757812 65.570312 20.808594 65.675781 20.976562 C 65.78125 21.148438 65.730469 21.371094 65.5625 21.476562 L 63.710938 22.636719 C 63.648438 22.675781 63.582031 22.691406 63.519531 22.691406 Z M 63.519531 22.691406 " fill-opacity="1" fill-rule="nonzero"/><path fill="#1e425e" d="M 63.496094 25.871094 C 63.371094 25.871094 63.246094 25.804688 63.179688 25.6875 C 63.082031 25.515625 63.144531 25.292969 63.316406 25.195312 L 65.203125 24.121094 C 65.378906 24.023438 65.597656 24.085938 65.699219 24.257812 C 65.796875 24.433594 65.734375 24.652344 65.5625 24.753906 L 63.671875 25.824219 C 63.617188 25.855469 63.554688 25.871094 63.496094 25.871094 Z M 63.496094 25.871094 " fill-opacity="1" fill-rule="nonzero"/><path fill="#1e425e" d="M 63.5 29.046875 C 63.371094 29.046875 63.242188 28.972656 63.179688 28.847656 C 63.089844 28.671875 63.160156 28.453125 63.335938 28.359375 L 65.234375 27.386719 C 65.410156 27.292969 65.628906 27.363281 65.722656 27.542969 C 65.8125 27.71875 65.742188 27.9375 65.566406 28.027344 L 63.667969 29.003906 C 63.613281 29.03125 63.558594 29.046875 63.5 29.046875 Z M 63.5 29.046875 " fill-opacity="1" fill-rule="nonzero"/><path fill="#1e425e" d="M 63.542969 32.238281 C 63.40625 32.238281 63.277344 32.160156 63.214844 32.03125 C 63.132812 31.847656 63.210938 31.632812 63.390625 31.550781 L 65.210938 30.707031 C 65.390625 30.621094 65.605469 30.703125 65.691406 30.882812 C 65.773438 31.066406 65.695312 31.28125 65.515625 31.363281 L 63.695312 32.207031 C 63.644531 32.230469 63.59375 32.238281 63.542969 32.238281 Z M 63.542969 32.238281 " fill-opacity="1" fill-rule="nonzero"/><path fill="#1e425e" d="M 63.53125 35.421875 C 63.386719 35.421875 63.25 35.335938 63.195312 35.195312 C 63.121094 35.011719 63.210938 34.800781 63.394531 34.722656 L 65.257812 33.972656 C 65.441406 33.898438 65.652344 33.988281 65.726562 34.171875 C 65.800781 34.359375 65.710938 34.566406 65.527344 34.644531 L 63.664062 35.394531 C 63.621094 35.414062 63.574219 35.421875 63.53125 35.421875 Z M 63.53125 35.421875 " fill-opacity="1" fill-rule="nonzero"/><path fill="#1e425e" d="M 63.519531 38.589844 C 63.367188 38.589844 63.226562 38.492188 63.175781 38.34375 C 63.113281 38.152344 63.210938 37.949219 63.402344 37.886719 L 65.273438 37.253906 C 65.464844 37.191406 65.667969 37.292969 65.734375 37.480469 C 65.796875 37.667969 65.695312 37.875 65.507812 37.9375 L 63.632812 38.570312 C 63.59375 38.582031 63.554688 38.589844 63.519531 38.589844 Z M 63.519531 38.589844 " fill-opacity="1" fill-rule="nonzero"/><path fill="#1e425e" d="M 63.542969 41.800781 C 63.386719 41.800781 63.242188 41.699219 63.195312 41.542969 C 63.136719 41.351562 63.246094 41.148438 63.4375 41.089844 L 65.28125 40.539062 C 65.46875 40.480469 65.671875 40.589844 65.730469 40.78125 C 65.789062 40.972656 65.679688 41.175781 65.488281 41.234375 L 63.644531 41.785156 C 63.609375 41.796875 63.578125 41.800781 63.542969 41.800781 Z M 63.542969 41.800781 " fill-opacity="1" fill-rule="nonzero"/><path fill="#1e425e" d="M 63.535156 44.957031 C 63.371094 44.957031 63.21875 44.84375 63.183594 44.675781 C 63.140625 44.480469 63.261719 44.285156 63.457031 44.242188 L 65.28125 43.835938 C 65.476562 43.789062 65.667969 43.914062 65.710938 44.109375 C 65.753906 44.304688 65.632812 44.496094 65.4375 44.542969 L 63.613281 44.949219 C 63.589844 44.957031 63.5625 44.957031 63.535156 44.957031 Z M 63.535156 44.957031 " fill-opacity="1" fill-rule="nonzero"/><path fill="#1e425e" d="M 63.523438 48.15625 C 63.347656 48.15625 63.195312 48.03125 63.164062 47.855469 C 63.132812 47.660156 63.265625 47.472656 63.460938 47.441406 L 65.332031 47.121094 C 65.53125 47.089844 65.71875 47.222656 65.75 47.417969 C 65.785156 47.613281 65.652344 47.800781 65.453125 47.835938 L 63.582031 48.152344 C 63.5625 48.15625 63.542969 48.15625 63.519531 48.15625 Z M 63.523438 48.15625 " fill-opacity="1" fill-rule="nonzero"/><path fill="#1e425e" d="M 63.53125 51.347656 C 63.347656 51.347656 63.191406 51.210938 63.171875 51.023438 C 63.148438 50.824219 63.292969 50.648438 63.492188 50.625 L 65.324219 50.421875 C 65.523438 50.398438 65.699219 50.542969 65.722656 50.742188 C 65.742188 50.941406 65.601562 51.117188 65.402344 51.140625 L 63.570312 51.34375 C 63.554688 51.34375 63.542969 51.347656 63.527344 51.347656 Z M 63.53125 51.347656 " fill-opacity="1" fill-rule="nonzero"/><path fill="#1e425e" d="M 63.523438 54.535156 C 63.332031 54.535156 63.171875 54.382812 63.160156 54.191406 C 63.148438 53.992188 63.304688 53.820312 63.503906 53.8125 L 65.351562 53.714844 C 65.550781 53.703125 65.722656 53.859375 65.730469 54.058594 C 65.742188 54.257812 65.589844 54.425781 65.390625 54.4375 L 63.539062 54.535156 C 63.535156 54.535156 63.527344 54.535156 63.523438 54.535156 Z M 63.523438 54.535156 " fill-opacity="1" fill-rule="nonzero"/><g clip-path="url(#3734d9b3e8)"><path fill="#1e425e" d="M 49.574219 57.746094 L 37.132812 57.746094 C 36.917969 57.746094 36.738281 57.566406 36.738281 57.351562 L 36.738281 11.164062 C 36.738281 11.035156 36.804688 10.914062 36.910156 10.839844 L 49.351562 2.316406 C 49.472656 2.234375 49.628906 2.222656 49.757812 2.292969 C 49.886719 2.359375 49.96875 2.496094 49.96875 2.640625 L 49.96875 57.351562 C 49.96875 57.566406 49.789062 57.746094 49.574219 57.746094 Z M 37.527344 56.957031 L 49.179688 56.957031 L 49.179688 3.390625 L 37.527344 11.371094 Z M 37.527344 56.957031 " fill-opacity="1" fill-rule="nonzero"/></g><path fill="#1e425e" d="M 38.675781 14.449219 C 38.542969 14.449219 38.417969 14.382812 38.339844 14.261719 C 38.226562 14.078125 38.28125 13.835938 38.464844 13.71875 L 47.804688 7.84375 C 47.988281 7.726562 48.230469 7.78125 48.347656 7.964844 C 48.464844 8.148438 48.410156 8.394531 48.222656 8.511719 L 38.886719 14.386719 C 38.820312 14.429688 38.746094 14.449219 38.675781 14.449219 Z M 38.675781 14.449219 " fill-opacity="1" fill-rule="nonzero"/><path fill="#1e425e" d="M 38.671875 18.382812 C 38.53125 18.382812 38.398438 18.3125 38.328125 18.183594 C 38.21875 17.996094 38.285156 17.753906 38.472656 17.648438 L 47.824219 12.320312 C 48.011719 12.210938 48.253906 12.277344 48.363281 12.464844 C 48.46875 12.65625 48.402344 12.894531 48.214844 13.003906 L 38.863281 18.332031 C 38.804688 18.367188 38.734375 18.382812 38.671875 18.382812 Z M 38.671875 18.382812 " fill-opacity="1" fill-rule="nonzero"/><path fill="#1e425e" d="M 38.671875 22.316406 C 38.527344 22.316406 38.390625 22.238281 38.320312 22.101562 C 38.21875 21.90625 38.296875 21.671875 38.488281 21.570312 L 47.851562 16.75 C 48.046875 16.648438 48.285156 16.726562 48.382812 16.917969 C 48.484375 17.113281 48.40625 17.351562 48.214844 17.449219 L 38.851562 22.273438 C 38.792969 22.300781 38.730469 22.316406 38.671875 22.316406 Z M 38.671875 22.316406 " fill-opacity="1" fill-rule="nonzero"/><path fill="#1e425e" d="M 38.667969 26.242188 C 38.519531 26.242188 38.375 26.15625 38.308594 26.011719 C 38.21875 25.8125 38.304688 25.578125 38.503906 25.488281 L 47.871094 21.234375 C 48.066406 21.144531 48.300781 21.234375 48.390625 21.433594 C 48.480469 21.628906 48.394531 21.863281 48.195312 21.953125 L 38.832031 26.207031 C 38.777344 26.230469 38.722656 26.242188 38.667969 26.242188 Z M 38.667969 26.242188 " fill-opacity="1" fill-rule="nonzero"/><path fill="#1e425e" d="M 38.652344 30.210938 C 38.496094 30.210938 38.347656 30.117188 38.285156 29.960938 C 38.207031 29.757812 38.304688 29.53125 38.503906 29.449219 L 47.894531 25.695312 C 48.097656 25.613281 48.324219 25.710938 48.40625 25.914062 C 48.488281 26.117188 48.390625 26.34375 48.1875 26.425781 L 38.796875 30.183594 C 38.75 30.199219 38.699219 30.210938 38.652344 30.210938 Z M 38.652344 30.210938 " fill-opacity="1" fill-rule="nonzero"/><path fill="#1e425e" d="M 38.660156 34.148438 C 38.496094 34.148438 38.34375 34.046875 38.285156 33.882812 C 38.214844 33.679688 38.324219 33.453125 38.53125 33.382812 L 47.886719 30.15625 C 48.09375 30.082031 48.316406 30.191406 48.390625 30.398438 C 48.460938 30.605469 48.351562 30.828125 48.144531 30.898438 L 38.789062 34.128906 C 38.746094 34.144531 38.703125 34.148438 38.660156 34.148438 Z M 38.660156 34.148438 " fill-opacity="1" fill-rule="nonzero"/><path fill="#1e425e" d="M 38.664062 38.078125 C 38.492188 38.078125 38.335938 37.964844 38.285156 37.792969 C 38.226562 37.582031 38.347656 37.363281 38.554688 37.304688 L 47.90625 34.613281 C 48.113281 34.554688 48.332031 34.675781 48.394531 34.882812 C 48.453125 35.09375 48.332031 35.3125 48.121094 35.371094 L 38.773438 38.0625 C 38.738281 38.074219 38.699219 38.078125 38.664062 38.078125 Z M 38.664062 38.078125 " fill-opacity="1" fill-rule="nonzero"/><path fill="#1e425e" d="M 38.667969 42.015625 C 38.488281 42.015625 38.324219 41.890625 38.285156 41.707031 C 38.234375 41.496094 38.367188 41.285156 38.578125 41.234375 L 47.941406 39.078125 C 48.152344 39.03125 48.363281 39.164062 48.414062 39.375 C 48.460938 39.589844 48.328125 39.800781 48.117188 39.847656 L 38.757812 42.003906 C 38.726562 42.011719 38.695312 42.015625 38.667969 42.015625 Z M 38.667969 42.015625 " fill-opacity="1" fill-rule="nonzero"/><path fill="#1e425e" d="M 38.664062 45.9375 C 38.476562 45.9375 38.308594 45.800781 38.277344 45.609375 C 38.238281 45.394531 38.382812 45.191406 38.597656 45.15625 L 47.96875 43.570312 C 48.179688 43.535156 48.386719 43.679688 48.421875 43.894531 C 48.457031 44.109375 48.3125 44.3125 48.097656 44.351562 L 38.730469 45.933594 C 38.707031 45.9375 38.6875 45.9375 38.664062 45.9375 Z M 38.664062 45.9375 " fill-opacity="1" fill-rule="nonzero"/><path fill="#1e425e" d="M 38.675781 49.871094 C 38.476562 49.871094 38.304688 49.722656 38.285156 49.519531 C 38.257812 49.304688 38.414062 49.109375 38.628906 49.085938 L 47.992188 48.015625 C 48.207031 47.992188 48.40625 48.148438 48.429688 48.363281 C 48.453125 48.578125 48.296875 48.777344 48.082031 48.800781 L 38.71875 49.867188 C 38.703125 49.871094 38.691406 49.871094 38.675781 49.871094 Z M 38.675781 49.871094 " fill-opacity="1" fill-rule="nonzero"/><path fill="#1e425e" d="M 38.671875 53.816406 C 38.464844 53.816406 38.289062 53.652344 38.277344 53.441406 C 38.265625 53.226562 38.433594 53.039062 38.648438 53.027344 L 48.035156 52.492188 C 48.25 52.476562 48.4375 52.644531 48.449219 52.863281 C 48.464844 53.078125 48.296875 53.265625 48.078125 53.277344 L 38.695312 53.8125 C 38.6875 53.8125 38.679688 53.8125 38.671875 53.8125 Z M 38.671875 53.816406 " fill-opacity="1" fill-rule="nonzero"/><g clip-path="url(#4f1c6f1447)"><path fill="#1e425e" d="M 62.015625 57.746094 L 49.574219 57.746094 C 49.355469 57.746094 49.179688 57.566406 49.179688 57.351562 L 49.179688 2.640625 C 49.179688 2.496094 49.261719 2.359375 49.390625 2.292969 C 49.519531 2.222656 49.675781 2.234375 49.796875 2.316406 L 62.238281 10.839844 C 62.34375 10.914062 62.40625 11.035156 62.40625 11.164062 L 62.40625 57.351562 C 62.40625 57.566406 62.230469 57.742188 62.015625 57.742188 Z M 49.96875 56.957031 L 61.621094 56.957031 L 61.621094 11.375 L 49.96875 3.390625 Z M 49.96875 56.957031 " fill-opacity="1" fill-rule="nonzero"/></g><path fill="#1e425e" d="M 60.488281 14.453125 C 60.417969 14.453125 60.34375 14.433594 60.28125 14.390625 L 50.871094 8.492188 C 50.6875 8.378906 50.628906 8.132812 50.746094 7.949219 C 50.863281 7.765625 51.105469 7.710938 51.289062 7.824219 L 60.699219 13.722656 C 60.882812 13.839844 60.9375 14.082031 60.824219 14.265625 C 60.75 14.386719 60.621094 14.453125 60.488281 14.453125 Z M 60.488281 14.453125 " fill-opacity="1" fill-rule="nonzero"/><path fill="#1e425e" d="M 60.476562 18.355469 C 60.410156 18.355469 60.34375 18.339844 60.28125 18.304688 L 50.921875 12.96875 C 50.730469 12.859375 50.664062 12.621094 50.773438 12.429688 C 50.882812 12.242188 51.121094 12.175781 51.3125 12.285156 L 60.671875 17.621094 C 60.863281 17.726562 60.929688 17.96875 60.820312 18.15625 C 60.746094 18.285156 60.613281 18.355469 60.476562 18.355469 Z M 60.476562 18.355469 " fill-opacity="1" fill-rule="nonzero"/><path fill="#1e425e" d="M 60.484375 22.320312 C 60.421875 22.320312 60.359375 22.304688 60.304688 22.277344 L 50.957031 17.464844 C 50.761719 17.367188 50.6875 17.128906 50.785156 16.933594 C 50.886719 16.738281 51.121094 16.664062 51.316406 16.765625 L 60.664062 21.574219 C 60.859375 21.675781 60.933594 21.910156 60.835938 22.105469 C 60.765625 22.242188 60.625 22.320312 60.484375 22.320312 Z M 60.484375 22.320312 " fill-opacity="1" fill-rule="nonzero"/><path fill="#1e425e" d="M 60.476562 26.261719 C 60.421875 26.261719 60.367188 26.25 60.3125 26.226562 L 50.960938 21.945312 C 50.761719 21.855469 50.671875 21.621094 50.765625 21.421875 C 50.855469 21.226562 51.089844 21.136719 51.289062 21.226562 L 60.640625 25.507812 C 60.839844 25.597656 60.925781 25.832031 60.835938 26.03125 C 60.769531 26.175781 60.625 26.261719 60.476562 26.261719 Z M 60.476562 26.261719 " fill-opacity="1" fill-rule="nonzero"/><path fill="#1e425e" d="M 60.464844 30.179688 C 60.417969 30.179688 60.367188 30.167969 60.316406 30.152344 L 50.964844 26.402344 C 50.761719 26.320312 50.664062 26.089844 50.746094 25.890625 C 50.828125 25.6875 51.058594 25.589844 51.257812 25.667969 L 60.613281 29.417969 C 60.8125 29.5 60.910156 29.730469 60.832031 29.929688 C 60.769531 30.085938 60.621094 30.179688 60.464844 30.179688 Z M 60.464844 30.179688 " fill-opacity="1" fill-rule="nonzero"/><path fill="#1e425e" d="M 60.460938 34.128906 C 60.417969 34.128906 60.375 34.121094 60.332031 34.109375 L 50.996094 30.902344 C 50.789062 30.832031 50.679688 30.605469 50.75 30.402344 C 50.820312 30.195312 51.042969 30.085938 51.25 30.15625 L 60.589844 33.363281 C 60.792969 33.433594 60.902344 33.65625 60.832031 33.863281 C 60.777344 34.027344 60.625 34.128906 60.460938 34.128906 Z M 60.460938 34.128906 " fill-opacity="1" fill-rule="nonzero"/><path fill="#1e425e" d="M 60.46875 38.078125 C 60.433594 38.078125 60.394531 38.074219 60.359375 38.0625 L 51.015625 35.375 C 50.804688 35.3125 50.683594 35.09375 50.746094 34.886719 C 50.804688 34.675781 51.023438 34.554688 51.230469 34.617188 L 60.578125 37.304688 C 60.785156 37.363281 60.90625 37.582031 60.847656 37.792969 C 60.796875 37.964844 60.640625 38.078125 60.46875 38.078125 Z M 60.46875 38.078125 " fill-opacity="1" fill-rule="nonzero"/><path fill="#1e425e" d="M 60.496094 42.011719 C 60.464844 42.011719 60.4375 42.007812 60.40625 42.003906 L 51.003906 39.839844 C 50.792969 39.792969 50.660156 39.582031 50.707031 39.367188 C 50.757812 39.15625 50.96875 39.023438 51.179688 39.070312 L 60.582031 41.234375 C 60.796875 41.28125 60.929688 41.492188 60.878906 41.707031 C 60.835938 41.890625 60.675781 42.011719 60.496094 42.011719 Z M 60.496094 42.011719 " fill-opacity="1" fill-rule="nonzero"/><path fill="#1e425e" d="M 60.453125 45.941406 C 60.429688 45.941406 60.410156 45.941406 60.386719 45.9375 L 51.046875 44.335938 C 50.832031 44.300781 50.6875 44.097656 50.722656 43.882812 C 50.761719 43.667969 50.964844 43.523438 51.179688 43.558594 L 60.519531 45.160156 C 60.734375 45.195312 60.878906 45.398438 60.84375 45.613281 C 60.808594 45.804688 60.640625 45.941406 60.453125 45.941406 Z M 60.453125 45.941406 " fill-opacity="1" fill-rule="nonzero"/><path fill="#1e425e" d="M 60.460938 49.871094 C 60.445312 49.871094 60.433594 49.871094 60.417969 49.867188 L 51.066406 48.808594 C 50.851562 48.785156 50.695312 48.589844 50.71875 48.375 C 50.746094 48.15625 50.941406 48 51.15625 48.027344 L 60.503906 49.082031 C 60.722656 49.109375 60.878906 49.304688 60.851562 49.519531 C 60.832031 49.722656 60.660156 49.871094 60.460938 49.871094 Z M 60.460938 49.871094 " fill-opacity="1" fill-rule="nonzero"/><path fill="#1e425e" d="M 60.457031 53.832031 C 60.449219 53.832031 60.441406 53.832031 60.433594 53.832031 L 51.078125 53.277344 C 50.859375 53.265625 50.695312 53.078125 50.707031 52.859375 C 50.722656 52.640625 50.90625 52.476562 51.125 52.488281 L 60.480469 53.042969 C 60.699219 53.058594 60.863281 53.242188 60.851562 53.460938 C 60.839844 53.671875 60.664062 53.832031 60.457031 53.832031 Z M 60.457031 53.832031 " fill-opacity="1" fill-rule="nonzero"/><g clip-path="url(#4324794bd0)"><path fill="#1e425e" d="M 79.039062 57.746094 L 20.121094 57.746094 C 19.902344 57.746094 19.726562 57.566406 19.726562 57.351562 C 19.726562 57.132812 19.902344 56.957031 20.121094 56.957031 L 79.039062 56.957031 C 79.257812 56.957031 79.433594 57.132812 79.433594 57.351562 C 79.433594 57.566406 79.257812 57.746094 79.039062 57.746094 Z M 79.039062 57.746094 " fill-opacity="1" fill-rule="nonzero"/></g></svg>